<?xml version="1.0" standalone="no"?>
<!DOCTYPE svg PUBLIC "-//W3C//DTD SVG 1.1//EN" "http://www.w3.org/Graphics/SVG/1.1/DTD/svg11.dtd" >
<svg xmlns="http://www.w3.org/2000/svg">
<metadata>
Created by FontForge 20120731 at Fri Jul 17 17:50:09 2015
 By Ads
</metadata>
<defs>
<font id="iconfont" horiz-adv-x="1024" >
  <font-face 
    font-family="iconfont"
    font-weight="500"
    font-stretch="normal"
    units-per-em="1024"
    panose-1="2 0 6 3 0 0 0 0 0 0"
    ascent="812"
    descent="-212"
    x-height="792"
    bbox="34 -172 961 792"
    underline-thickness="50"
    underline-position="-100"
    unicode-range="U+0078-E623"
  />
<missing-glyph horiz-adv-x="374" 
d="M34 0v682h272v-682h-272zM68 34h204v614h-204v-614z" />
    <glyph glyph-name=".notdef" horiz-adv-x="374" 
d="M34 0v682h272v-682h-272zM68 34h204v614h-204v-614z" />
    <glyph glyph-name=".null" horiz-adv-x="0" 
 />
    <glyph glyph-name="nonmarkingreturn" horiz-adv-x="341" 
 />
    <glyph glyph-name="x" unicode="x" horiz-adv-x="1001" 
d="M281 543q-27 -1 -53 -1h-83q-18 0 -36.5 -6t-32.5 -18.5t-23 -32t-9 -45.5v-76h912v41q0 16 -0.5 30t-0.5 18q0 13 -5 29t-17 29.5t-31.5 22.5t-49.5 9h-133v-97h-438v97zM955 310v-52q0 -23 0.5 -52t0.5 -58t-10.5 -47.5t-26 -30t-33 -16t-31.5 -4.5q-14 -1 -29.5 -0.5
t-29.5 0.5h-32l-45 128h-439l-44 -128h-29h-34q-20 0 -45 1q-25 0 -41 9.5t-25.5 23t-13.5 29.5t-4 30v167h911zM163 247q-12 0 -21 -8.5t-9 -21.5t9 -21.5t21 -8.5q13 0 22 8.5t9 21.5t-9 21.5t-22 8.5zM316 123q-8 -26 -14 -48q-5 -19 -10.5 -37t-7.5 -25t-3 -15t1 -14.5
t9.5 -10.5t21.5 -4h37h67h81h80h64h36q23 0 34 12t2 38q-5 13 -9.5 30.5t-9.5 34.5q-5 19 -11 39h-368zM336 498v228q0 11 2.5 23t10 21.5t20.5 15.5t34 6h188q31 0 51.5 -14.5t20.5 -52.5v-227h-327z" />
    <glyph glyph-name="uniE600" unicode="&#xe600;" 
d="M945 -7q-21 22 -37.5 51t-26 54t-18.5 63.5t-12.5 61.5t-9.5 66q-5 36 -8 55t-10 53t-13.5 53.5t-18.5 49t-25.5 46.5t-33.5 38.5t-44 33.5t-55.5 22.5t-69.5 13.5v30q0 21 -15.5 36.5t-37.5 15.5q-10 0 -20 -4t-17 -11t-11.5 -17t-4.5 -20v-30q-47 -5 -85.5 -20
t-64.5 -33.5t-46.5 -50.5t-32 -56t-21.5 -67t-14 -67t-11 -71q-8 -54 -13 -83.5t-16.5 -74t-30 -78t-43.5 -60.5q-24 -25 -11 -57q7 -15 20 -24t29 -9h327q1 -26 20.5 -44.5t46 -18.5t45.5 18.5t20 44.5h331q16 0 29 9t20 24q13 32 -11 57zM510 -5h-311q22 41 37 94.5
t21.5 88.5t14.5 96q6 38 10 62.5t10 54t12.5 47.5t16.5 38.5t22 32.5t28 24.5t36.5 18.5t46 10t56.5 4q29 0 52.5 -2.5t43 -9t35 -14t28.5 -21t22 -25.5t17.5 -32t14 -37.5t10.5 -44.5t9 -49.5t9 -56.5q8 -62 14.5 -96.5t22 -88t36.5 -94.5h-314z" />
    <glyph glyph-name="uniE601" unicode="&#xe601;" 
d="M711 748h-398q-41 0 -70.5 -29.5t-29.5 -70.5v-696q0 -42 29.5 -71t70.5 -29h398q41 0 70.5 29t29.5 71v696q0 27 -13.5 50t-36.5 36.5t-50 13.5zM562 -98h-100v99h100v-99zM711 51h-398v597h398v-597z" />
    <glyph glyph-name="uniE602" unicode="&#xe602;" 
d="M514 -59q-93 0 -172.5 46.5t-125.5 125.5t-46 172.5t46 173t125.5 125.5t172.5 46q40 0 79 -9t72.5 -26t63.5 -40.5t53.5 -53.5t40.5 -64t26 -72.5t9 -78.5q0 -94 -46 -173t-125.5 -125.5t-172.5 -46.5zM513 534q-102 0 -175 -72.5t-73 -174.5q0 -67 33.5 -124t90.5 -90
t124 -33t124 33t90 90t33 124q0 102 -72.5 174.5t-174.5 72.5zM514 581q-19 0 -32.5 15.5t-13.5 36.5v52q0 21 13.5 36t32.5 15t33 -15t14 -36v-52q0 -10 -4 -20t-10 -16.5t-14.5 -11t-18.5 -4.5zM514 171q-23 0 -44 9t-37 25t-25 37t-9 44q0 48 34 81q21 21 51 28.5t60 0
t51 -28.5q8 -8 14.5 -17.5t10.5 -20t6.5 -21.5t2.5 -22q0 -48 -33 -81q-34 -34 -82 -34zM514 -160q-13 0 -23.5 6.5t-16.5 18.5t-6 26v52q0 21 13.5 36.5t32.5 15.5t33 -15.5t14 -36.5v-52q0 -10 -4 -19.5t-10 -16.5t-14.5 -11t-18.5 -4zM806 288q0 19 15 32.5t36 13.5h52
q22 0 37 -13.5t15 -32.5q0 -13 -7 -23.5t-19 -16.5t-26 -6h-52q-21 0 -36 13.5t-15 32.5zM64 288q0 19 15 32.5t37 13.5h51q14 0 26 -6t19 -16.5t7 -23.5t-7 -23.5t-19 -16.5t-26 -6h-51q-22 0 -37 13.5t-15 32.5zM730 485q-13 14 -11 34.5t18 34.5l38 35q10 9 23 12.5
t25.5 0.5t20.5 -13q13 -14 11 -34.5t-18 -34.5l-38 -35q-16 -14 -36 -14t-33 14zM180 -13.5q-13 14.5 -11 34.5t18 35l38 35q16 14 36.5 14t33.5 -14t11 -34.5t-18 -34.5l-38 -35q-16 -14 -36.5 -14.5t-33.5 14zM726 87q13 14 33.5 13.5t35.5 -15.5l38 -35q15 -15 17 -35.5
t-11.5 -34.5t-33.5 -13.5t-36 15.5l-38 35q-15 15 -16.5 35.5t11.5 34.5zM186 596q13 14 33.5 13.5t36.5 -15.5l37 -35q16 -15 17.5 -35.5t-11.5 -34.5q-9 -9 -21.5 -12t-25 0.5t-23.5 13.5l-37 35q-16 15 -17.5 35.5t11.5 34.5z" />
    <glyph glyph-name="uniE603" unicode="&#xe603;" 
d="M224 -144h576h-576zM823 -147q23 0 23 26v392q2 0 5 -1t4.5 -1t3.5 -0.5t3 -0.5h4q11 0 22 5t19 13t14.5 18.5t10 21t4.5 19.5l1 14h-1v4l-3 6l-98 369q-2 9 -10 9h-626q-2 0 -4.5 -1t-4 -3t-1.5 -5l-96 -369q-4 -2 -5 -6v-4h-1l1 -14q1 -12 6.5 -25t14.5 -25t22 -19.5
t27 -7.5q6 0 16 3h4v-392q0 -11 7 -18.5t16 -7.5h622zM700 359l-42 367h67l70 -367h-95zM465 359l14 367h64l13 -367h-91zM230 359l69 367h67l-43 -367h-93zM224 36v266q7 -15 22 -24.5t31 -9.5q18 0 33 12t25 30q23 -42 59 -42t59 42q23 -42 59 -42t59 42q10 -18 25.5 -30
t33.5 -12q36 0 59 42q23 -42 58 -42q6 0 13 1.5t12.5 4.5t11 7.5t9.5 9.5t7 11v-266h-576z" />
    <glyph glyph-name="uniE604" unicode="&#xe604;" 
d="M576 15h20v-4h-20v4zM664 36h5v-16h-5v16zM433 28h-15h-1q3 -4 8 -6q5 3 8 6zM443 36h-37v-37h37v37zM435 0q-11 3 -24 4l1 4q13 -2 25 -4zM417 11l1 3q7 -1 15 -2l-1 -4l-6 2h-4q-3 1 -5 1zM440 14l-8 2q-4 1 -7 2l-16 -5q-1 2 -2 3q9 2 14 4l-6 6l-5 -5q-1 1 -2 3
q7 5 11 12l3 -2l-2 -3h18v-3q-4 -4 -9 -8q5 -1 13 -3zM680 37h5v-17h-5v17zM576 8h20v-3h-20v3zM384 549h239l22 32q6 9 25.5 36.5t29.5 43.5q22 36 17 51q-1 4 -4 7.5t-6.5 5.5t-7.5 3t-9 2q-1 0 -12 2.5t-19 4t-21 2.5t-17 0q-7 -2 -14.5 -4.5t-16 -6t-14.5 -5.5
q-18 -6 -34.5 -9.5t-32.5 -2.5q-38 2 -61 10q-3 2 -7.5 3.5t-8 3t-7.5 3t-7.5 3t-8 2.5t-8.5 2q-19 3 -76 -7q-23 -3 -31.5 -12t-2 -27t15.5 -32.5t31 -45.5q5 -7 8 -11t7.5 -10.5t8.5 -11.5zM912 111q-48 111 -126.5 214t-163.5 156h-241q-85 -53 -163.5 -156t-126.5 -214
q-24 -53 -21.5 -104t22.5 -90.5t60.5 -63.5t91.5 -24h515q51 0 91.5 24t60.5 63.5t22.5 90.5t-21.5 104zM650 236h-108v-271h-77v271h-109v62h294v-62z" />
    <glyph glyph-name="uniE605" unicode="&#xe605;" 
d="M925 463q-34 80 -96 142q-20 21 -43 38.5t-48 32t-51 25.5q-84 36 -175 36t-174 -36q-81 -34 -143 -96t-96 -142q-35 -83 -35 -174.5t35 -174.5q34 -81 96 -143t143 -96q83 -35 174 -35q46 0 89.5 9t85.5 26q80 34 142 96t96 143q35 83 35 174q0 92 -35 175zM728 527
q-24 57 -59 99q61 -29 108 -76l-16 -8q-8 -4 -16.5 -8t-16.5 -7zM808 514q68 -90 75 -202h-111q-1 46 -8.5 89t-19.5 81q33 14 64 32zM699 467q22 -71 25 -155h-188v129q86 3 163 26zM536 489v169q22 -4 43 -16t39.5 -31t34.5 -44t29 -55q-17 -5 -34.5 -9t-36 -7t-37.5 -4.5
t-38 -2.5zM724 265q-3 -84 -25 -155q-76 22 -163 26v129h188zM536 88q79 -3 146 -23q-17 -40 -39.5 -70.5t-50 -50.5t-56.5 -26v170zM669 -49q35 42 59 99q13 -6 25 -11.5t24 -12.5q-47 -47 -108 -75zM744 94q25 79 28 171h111q-7 -112 -75 -202q-7 5 -15 9l-16 8
q-8 4 -16 7.5t-17 6.5zM246 28q24 14 50 24q24 -58 60 -101q-63 29 -110 77zM356 626q-36 -43 -60 -101q-13 5 -25.5 11t-24.5 12q16 16 33.5 30.5t36.5 26t40 21.5zM280 481q-25 -79 -28 -169h-111q7 111 74 199q31 -17 65 -30zM252 265q3 -90 28 -169q-34 -13 -66 -31
q-12 17 -23 35.5t-19.5 38t-15 40t-10.5 42t-5 44.5h111zM341 67q68 19 147 21v-170q-91 18 -147 149zM325 112q-22 70 -25 153h188v-129q-87 -3 -163 -24zM300 312q1 28 4 54.5t8.5 51.5t12.5 48q78 -22 163 -25v-129h-188zM342 510q26 62 64 101t82 47v-169q-76 2 -146 21
z" />
    <glyph glyph-name="uniE606" unicode="&#xe606;" 
d="M63 684l41 41l856 -856l-41 -41zM63 -131l856 856l41 -41l-856 -856z" />
    <glyph glyph-name="uniE607" unicode="&#xe607;" 
d="M826 736h-628q-50 0 -85 -35t-35 -85v-492q0 -49 35 -84t85 -35h208v-89h-44q-16 0 -27 -11t-11 -26q0 -7 2 -12.5t5.5 -10t8 -8t10.5 -5.5t12 -2h328q6 0 11.5 2t10 5.5t8 8t5.5 10t2 12.5t-3 14t-8 12t-12 8t-14 3h-45v89h181q24 0 46.5 9.5t38.5 25.5t25.5 38t9.5 46
v492q0 50 -35 85t-85 35zM570 5v-89h-89v89h89zM153 169h718v-45q0 -4 -1 -8.5t-2.5 -8.5t-4 -7.5t-5.5 -6.5t-6.5 -5.5t-7.5 -4t-8.5 -2.5t-9.5 -1h-628q-19 0 -32 13t-13 31v45zM153 616q0 12 6 22.5t16.5 16.5t22.5 6h628q9 0 17.5 -3.5t14.5 -9.5t9.5 -14.5t3.5 -17.5
v-372h-718v372z" />
    <glyph glyph-name="uniE608" unicode="&#xe608;" 
d="M873 728q-6 4 -12 6t-13 2t-13 -3l-467 -136q-13 -5 -20.5 -15.5t-7.5 -24.5v-439q-31 14 -62 14q-60 0 -102.5 -43t-42.5 -103t42.5 -103t102.5 -43q40 0 73.5 19.5t53 53.5t19.5 73v1l-1 1l1 1v538l383 107v-377q-15 7 -30 10.5t-31 3.5q-30 0 -57 -11.5t-46.5 -31
t-31 -46.5t-11.5 -56q0 -61 43 -103.5t103 -42.5t102.5 42.5t42.5 103.5v568q0 10 -5 19t-13 15zM278 -76q-12 0 -23.5 5t-19.5 13.5t-13 20t-5 23.5q0 26 18 44t43.5 18t43.5 -18t18 -44q0 -7 -1.5 -14t-4.5 -13t-7.5 -11.5t-10 -9.5t-11.5 -7t-12.5 -5t-14.5 -2zM745 64
q-16 0 -30 8.5t-22.5 22.5t-8.5 30.5t8.5 31t22.5 22.5t30 8q13 0 24.5 -5t19.5 -13t13 -19.5t5 -23.5q0 -26 -18 -44t-44 -18z" />
    <glyph glyph-name="uniE609" unicode="&#xe609;" 
d="M229 264q27 6 45 23.5t25.5 35.5t10 42.5t2 36t-2.5 25.5q-3 21 -17 45t-40 42t-55 15q-63 -5 -85 -96l-4 -25q-5 -20 0.5 -47t19 -52t40.5 -38.5t61 -6.5zM636 450q26 -3 48.5 7.5t38 30t26 42.5t13.5 46q4 21 -2.5 44t-18.5 42t-29.5 33t-36.5 18q-36 8 -75 -36
t-44 -87q-4 -36 1.5 -64t25.5 -49.5t53 -26.5zM331 62q-9 -28 -4 -47q12 -39 46 -43h51v125h-54q-12 -4 -20.5 -11t-12.5 -13t-6 -11zM407 459q40 0 68.5 40.5t28.5 98.5q0 22 -5 43.5t-14 38.5t-21 29.5t-26.5 19.5t-30 7t-30.5 -7t-26.5 -19.5t-20.5 -29.5t-14 -38.5
t-5 -43.5q0 -38 13 -70t35 -50.5t48 -18.5zM918 353q0 12 -5.5 29t-16.5 36.5t-33.5 32.5t-52.5 13t-50.5 -12.5t-29.5 -34.5t-12.5 -42.5t-3.5 -45.5q0 -20 1.5 -34t7.5 -33t17 -30.5t32.5 -20t51.5 -7.5q15 0 28 4t22.5 9.5t16.5 14.5t11.5 17t8 19.5t5 20t2 20t0.5 17.5
v16v11zM810 109q-12 9 -32 26t-66.5 64t-75.5 89q-30 48 -69.5 68.5t-74 14.5t-63 -25t-45.5 -47q-18 -31 -44 -59t-47 -46t-23 -20q-1 -2 -12.5 -10.5t-25 -20t-29 -29.5t-25.5 -38t-15.5 -47.5t2.5 -57.5q21 -95 98 -116q24 -7 25 -4q71 -7 154 11q42 8 76 7t56 -6l21 -5
q4 -2 11 -4t28 -6t41 -6t46.5 0t47.5 9t40.5 24t30.5 43t15 50t2 42.5t-6.5 35t-11.5 27.5t-13.5 19.5t-11.5 12.5zM481 -78h-125q-24 5 -43 18t-26 21.5t-9 14.5q-17 42 -10 88q20 65 80 80l10 2h66v82h57v-306zM714 -77h-144q-15 4 -27 11t-17.5 14t-9 14.5t-4 10.5
t-0.5 4v161l58 1v-144q4 -16 23 -19h59v162h62v-215z" />
    <glyph glyph-name="uniE60A" unicode="&#xe60a;" horiz-adv-x="1126" 
d="M869 -17q0 -21 -18 -39t-39 -18h-600q-21 0 -39 18t-18 39v600q0 20 18 38.5t39 18.5h422v86h-450q-48 0 -81.5 -33.5t-33.5 -80.5v-657q0 -19 6 -36.5t16.5 -31.5t24.5 -24.5t31.5 -16.5t36.5 -6h656q48 0 81.5 33.5t33.5 81.5v481h-86v-453zM241 22h140l-140 139v-139z
M955 616l-120 120l-85 -85l120 -120zM435 98l389 388l-119 120l-390 -389z" />
    <glyph glyph-name="uniE60B" unicode="&#xe60b;" 
d="M847 -19q0 -21 -17.5 -38.5t-38.5 -17.5h-586q-21 0 -38.5 17.5t-17.5 38.5v530q0 10 5 20t12.5 18t18 13t20.5 5h160q47 50 103 84h-291q-46 0 -79 -32.5t-33 -79.5v-586q0 -46 33 -79t79 -33h642q46 0 79 33t33 79v447l-84 -75v-344zM407 503q-24 -27 -43 -55.5
t-30.5 -52t-19.5 -47t-11.5 -40.5t-5 -31.5t-1.5 -21.5t1 -10q0 -1 7.5 7.5t23 24t37 34t54 37t70 33.5t88.5 23t106 5v-110l276 218l-276 218v-109q-19 0 -43.5 -3t-66 -13.5t-86 -38t-80.5 -68.5z" />
    <glyph glyph-name="uniE60C" unicode="&#xe60c;" 
d="M512 120l-448 463v-103l448 -463l448 463v103z" />
    <glyph glyph-name="uniE60D" unicode="&#xe60d;" 
d="M785 231q-18 -6 -44 -12t-89 -13t-140 -7q-186 0 -274 33l-29 -311v-6q0 -19 34 -34.5t92 -26.5v0q38 -6 83 -9.5t94 -3.5q123 0 211.5 21t91.5 51q1 4 0 8zM721 522q4 44 6 88t-11 80.5t-40 43.5q-11 4 -21 1t-18.5 -8t-16.5 -15.5t-14.5 -21.5t-12 -26t-10.5 -29
t-9 -31t-7 -31.5t-6 -29.5h-16q-8 0 -16.5 0.5t-16.5 0.5q-12 0 -25 -1q-6 38 -15 70t-22.5 64t-33.5 47.5t-44 9.5q-68 -18 -45 -207q-99 -19 -159 -55t-60 -80q0 -41 54 -76t147 -55.5t203 -20.5t203 20.5t147 55.5t54 76t-53 75.5t-142 54.5zM512 342q-64 0 -118.5 9
t-86 24.5t-31.5 33.5q0 13 16.5 24.5t46.5 21.5q1 -6 2 -11.5t2 -8.5v-2l58 9q-26 153 -1 163q28 10 53 -149q0 -2 1 -5l44 8q0 6 -2 17h16q20 0 40 -1l-2 -16l45 -8q4 26 8.5 50t11.5 51t15.5 41.5t17.5 11.5q6 -3 9 -15.5t3 -29.5t-2 -39.5t-4.5 -40.5t-5.5 -38l57 -9
q1 5 3 13q19 -8 29.5 -17.5t10.5 -19.5q0 -28 -69 -47.5t-167 -19.5z" />
    <glyph glyph-name="uniE60E" unicode="&#xe60e;" 
d="M327 254q-14 0 -24.5 -12.5t-10.5 -30.5q0 -7 2 -13.5t5 -12t7.5 -9.5t9.5 -6t11 -2q15 0 25 12.5t10 30.5q0 12 -4.5 22t-12.5 15.5t-18 5.5zM698 254q-10 0 -18 -5.5t-12.5 -15.5t-4.5 -22q0 -7 1.5 -13.5t5 -12t7.5 -9.5t9.5 -6t11.5 -2q14 0 24.5 12.5t10.5 30.5
q0 9 -3 17t-7.5 13.5t-11 9t-13.5 3.5zM511 660h1v0h1h-2zM885 469q-5 8 -19 27q26 7 41.5 27.5t13 49.5t-27.5 55q-7 8 -16 14t-17.5 9t-17.5 4t-17 0.5t-16 -3t-15 -6.5t-12.5 -9t-9.5 -11t-6.5 -13.5t-2.5 -14.5h1q-32 16 -57 26.5t-80.5 23t-114.5 12.5q-45 0 -86 -6
t-74 -17.5t-51 -19.5t-41 -19h1q0 25 -21.5 42.5t-53 15.5t-56 -28t-27 -55t13 -49.5t41.5 -27.5q-14 -19 -19 -27q-72 -121 -75.5 -231.5t66 -192.5t202.5 -114l2 -1q69 -14 178 -14t178 14l2 1q133 32 202.5 114t66 192.5t-75.5 231.5zM220 222q5 28 18.5 49t31 30.5
t37 12t37.5 -5.5t32 -22t20.5 -37.5t2.5 -51.5q-4 -26 -17 -45t-30.5 -27.5t-37.5 -11t-38 5t-32.5 20t-21 34.5t-2.5 49zM509 -36q-53 0 -91.5 27.5t-38.5 66.5q0 45 41 72.5t89 27.5t89 -28t41 -72q0 -43 -37.5 -68.5t-92.5 -25.5zM625 197q-3 22 0 41.5t12 33t20.5 23.5
t26.5 14t29.5 4.5t29.5 -6t27 -17t21 -28.5t13 -40q6 -37 -8.5 -64.5t-40.5 -36.5t-53 -6.5t-49.5 24.5t-27.5 58zM498 120q-7 -7 -3 -13.5t12 -10.5l8 -5q8 3 15.5 9.5t8.5 10.5q1 9 -14.5 13t-26.5 -4z" />
    <glyph glyph-name="uniE60F" unicode="&#xe60f;" 
d="M925 -54l-211 456v112h46v88h-496v-88h40v-113l-206 -455q-16 -37 6 -71.5t63 -34.5h690q13 0 25 4.5t22 12t16 18.5q22 34 5 71zM170 -77l209 462v129h260v-129l215 -462h-684zM379 209q-1 1 -18.5 -35t-43 -90t-38 -79.5t-19.5 -41.5h504l-141 294q-6 -6 -16 -15.5
t-40.5 -29.5t-59 -30t-64.5 -5t-64 32zM533 341q17 0 31.5 8.5t23 23t8.5 31.5q0 6 -1.5 12.5t-3.5 12t-5.5 10.5t-8 9.5t-9.5 7.5t-10.5 5.5t-12 4t-12.5 1.5q-26 0 -44.5 -18.5t-18.5 -44.5t18.5 -44.5t44.5 -18.5zM554 652q9 0 16.5 3t13 9t9 13.5t3.5 16.5
q0 11 -5.5 20.5t-15.5 15.5t-21 6t-21 -6t-15.5 -15.5t-5.5 -20.5q0 -18 12.5 -30t29.5 -12zM470 215q9 0 16.5 3.5t13 9t9 13.5t3.5 16q0 17 -12.5 29.5t-29.5 12.5t-29.5 -12.5t-12.5 -29.5q0 -8 3.5 -16t9 -13.5t13 -9t16.5 -3.5z" />
    <glyph glyph-name="uniE610" unicode="&#xe610;" 
d="M86 378q3 -2 6.5 -3t6.5 -1.5t5 -0.5h2h271q17 0 29.5 12t12.5 29.5t-12.5 30t-29.5 12.5h-183q24 42 55 78t66 59q90 58 197 58q136 0 239 -90q48 -42 79.5 -104.5t41.5 -128.5l1 -13h85l-2 17q-10 82 -48.5 159.5t-98.5 130.5q-41 36 -89 61.5t-100.5 38.5t-107.5 13
q-61 0 -120 -16.5t-111 -47.5q-39 -24 -72.5 -55t-60.5 -68v145q0 17 -12.5 29.5t-29.5 12.5t-29.5 -12.5t-12.5 -29.5v-271q0 -13 6 -26.5t16 -18.5zM938 198q-10 5 -20 5h-271q-18 0 -30.5 -12t-12.5 -29.5t12.5 -30t30.5 -12.5h182q-52 -93 -121 -137q-90 -58 -197 -58
q-137 0 -239 90q-48 42 -80 104.5t-41 128.5l-2 13h-85l2 -17q11 -82 49 -159t98 -131q62 -54 139 -83.5t159 -29.5q125 0 231 64q79 48 134 123v-145q0 -11 5.5 -20.5t15 -15.5t21 -6t21 6t15.5 15.5t6 20.5v271q0 30 -19 43q-2 2 -3 2z" />
    <glyph glyph-name="uniE611" unicode="&#xe611;" 
d="M708 659q69 0 119.5 -51.5t54.5 -127.5l1 -3v-1v-2v-6q0 -11 -2 -25q0 -3 -1 -4q-1 -8 -1 -12l-1 -1v-2q-4 -24 -11.5 -46.5t-15 -40t-23 -39t-26.5 -35.5t-34 -37l-36 -36q-13 -13 -42 -40q-116 -109 -178 -184q-62 75 -179 185q-39 37 -57.5 55t-46 48.5t-40.5 53
t-25.5 53t-17.5 63.5v2l-1 2q0 1 -0.5 3.5t-0.5 3t-1 3.5v1v4q-1 7 -1.5 13.5t-0.5 12.5v5v2v1v3q5 76 55.5 127.5t119.5 51.5q39 0 74.5 -18t60.5 -51l61 -80l61 80q25 33 60.5 51t74.5 18zM708 736q-39 0 -75.5 -12.5t-67 -34.5t-53.5 -52q-17 22 -39 40.5t-46.5 31.5
t-53 20t-57.5 7q-100 0 -172.5 -73t-78.5 -178h-1v-4v-4v-3v-5q0 -16 3 -37v-1v-2q2 -12 3 -17q10 -66 40 -121.5t76 -103.5t95.5 -93t114 -113t116.5 -141q44 62 97 121t96 98t87 82t75 80t54.5 86t32.5 105q0 3 0.5 6t1.5 5l1 6v2v1q3 20 3 37q0 2 -0.5 4.5t-0.5 3.5
t0.5 3.5t0.5 4.5h-1q-6 105 -78.5 178t-172.5 73v0z" />
    <glyph glyph-name="uniE612" unicode="&#xe612;" horiz-adv-x="1126" 
d="M375 145q0 -4 2 -7.5t6 -5.5q7 -4 14 -1l286 143q9 5 9 14q0 4 -2.5 8t-6.5 6l-286 143q-7 3 -14 -1q-4 -2 -6 -5.5t-2 -7.5v-286zM840 731h-656h-4h-2q-46 -3 -77 -35.5t-32 -78.5v-1v-656q0 -48 33.5 -81.5t81.5 -33.5h656q48 0 81 33.5t34 80.5v1v656q0 48 -33.5 81.5
t-81.5 33.5zM869 441v-453v-2q-1 -14 -10 -27v-1h-1v-1q-18 -24 -43 -26h-3h-600q-8 0 -16.5 3t-15.5 9t-13 13t-9 15.5t-3 16.5v147v453v2q0 3 0.5 5t1 4.5t1.5 4.5t2 4.5t2.5 4.5t2.5 4v1h1v1q18 24 43 26h3h600q21 0 39 -18t18 -39v-147z" />
    <glyph glyph-name="uniE613" unicode="&#xe613;" 
d="M322 631q-29 0 -52.5 -14t-37.5 -38t-14 -52q0 -43 30.5 -73.5t73.5 -30.5t73.5 30.5t30.5 73.5t-30.5 73.5t-73.5 30.5zM322 488q-16 0 -27.5 11.5t-11.5 27.5t11.5 27.5t27.5 11.5q10 0 19 -5.5t14 -14.5t5 -19.5t-5 -19t-14 -14t-19 -5.5zM805 736h-586
q-44 0 -75 -31.5t-31 -75.5v-585q0 -44 31 -75t75 -31h586q28 0 53 14t39 38.5t14 53.5v585q0 44 -31 75.5t-75 31.5zM227 12q-11 0 -20 5.5t-14 14.5t-5 19v19l180 161l218 -219h-359zM836 51q0 -10 -5 -19t-14 -14.5t-20 -5.5h-119l-166 169l190 191l134 -134v-187z
M836 331l-134 137l-236 -240l-96 97l-182 -167v464q0 16 11 27.5t28 11.5h570q8 0 15.5 -3t12.5 -8.5t8 -12.5t3 -15v-291z" />
    <glyph glyph-name="uniE614" unicode="&#xe614;" 
d="M960 288q0 -185 -131.5 -316.5t-316.5 -131.5q-91 0 -174 36t-143 96t-95.5 142.5t-35.5 173.5q0 61 16.5 119t45 107t70 90.5t90.5 70t107 45t119 16.5q73 0 141 -22.5t123 -64t96.5 -96.5t64.5 -123.5t23 -141.5zM876 288q0 99 -49 182.5t-132.5 132.5t-182.5 49
t-182.5 -49t-132.5 -132.5t-49 -182.5q0 -74 29 -141.5t77.5 -116t116 -77.5t141.5 -29q99 0 182.5 49t132.5 132.5t49 182.5zM746 193q-17 -32 -40.5 -57t-54.5 -42q-31 -19 -66.5 -29t-72.5 -10q-73 0 -135 35.5t-96 96.5q-8 14 -3.5 28.5t18.5 21.5q13 8 27.5 4t21.5 -18
q17 -28 42.5 -49.5t57.5 -32.5t67 -11q54 0 101 27q45 29 67 70q4 7 9.5 11.5t12 6.5t14 1.5t14.5 -3.5q13 -7 18 -22t-2 -28zM345 405q0 31 17 52.5t41 21.5q16 0 29.5 -9.5t21.5 -27t8 -37.5q0 -31 -17.5 -52t-41.5 -21q-25 0 -41.5 21t-16.5 52zM568 405q0 31 17 52.5
t41 21.5q25 0 42.5 -21.5t17.5 -52.5t-17.5 -52t-42.5 -21q-11 0 -22 5.5t-18.5 15.5t-12.5 23.5t-5 28.5z" />
    <glyph glyph-name="uniE615" unicode="&#xe615;" 
d="M332 300l463 448h-103l-463 -448l463 -448h103z" />
    <glyph glyph-name="uniE616" unicode="&#xe616;" 
d="M502 737q95 0 161.5 -65.5t66.5 -158.5t-66.5 -159t-161 -66t-161 66t-66.5 159t66.5 158.5t160.5 65.5zM502 737q95 0 161.5 -65.5t66.5 -158.5t-66.5 -159t-161 -66t-161 66t-66.5 159t66.5 158.5t160.5 65.5zM417 214h190q122 0 208 -85t86 -205v-19q0 -15 -9.5 -26.5
t-31 -18.5t-44.5 -11t-61.5 -6t-68.5 -2.5t-79 -0.5h-190q-53 0 -79.5 0.5t-68 2t-62 5.5t-43.5 11t-32 19t-9 27v19q0 120 86 205t208 85zM417 214z" />
    <glyph glyph-name="uniE617" unicode="&#xe617;" 
d="M64 115q0 -19 14.5 -32.5t34.5 -13.5h352l214 -201v201h233q20 0 34 13.5t14 32.5v547q0 19 -14 32.5t-34 13.5h-799q-21 0 -35 -13.5t-14 -32.5v-547z" />
    <glyph glyph-name="uniE618" unicode="&#xe618;" 
d="M692 300l-463 -447h103l463 447l-463 448h-103z" />
    <glyph glyph-name="uniE619" unicode="&#xe619;" 
d="M960 440q0 6 -1 7t-4 1h-5h-268l-40 70l-109 210h-20l-99 -210l-39 -70h-311v-5l56 -40l157 -138l-35 -318q0 -7 3 -8.5t18 -1.5l259 159l259 -159q7 0 9.5 1.5t10.5 8.5l-50 318l149 127zM305 136l288 235l-268 45h406l-247 -224l257 -56h-436z" />
    <glyph glyph-name="uniE61A" unicode="&#xe61a;" 
d="M728 305q-10 2 -15.5 5t-6.5 6.5t0 7t2 5t2 1.5q1 3 3 7t6 15.5t4.5 23t-4.5 26t-16 25.5q-14 15 -37 19.5t-46 0.5t-44 -9.5t-34 -10.5l-13 -6q-8 -3 -14.5 -4t-10.5 -1t-6 2.5t-3 4.5t-0.5 7.5t1.5 9t2.5 11.5t2.5 13q0 15 -2 28t-11 27.5t-23 22t-41 7t-62 -12.5
q-106 -36 -215 -170q-18 -22 -18 -23q-67 -90 -65 -171v-6q20 -179 275 -220q32 -5 65 -7q76 -6 157.5 12t151.5 62t99 105q17 36 17.5 68t-10.5 52t-29 35t-34 22t-28 10zM415 -14q-110 -5 -187.5 43.5t-77.5 121.5t77 126t188 58q112 5 189 -37.5t77 -114.5
q0 -76 -81 -135q-79 -56 -185 -62zM386 270q-108 -13 -128 -109q-5 -26 -3 -46v-5q0 -3 2 -12t6 -17t12 -17t20 -16q67 -32 125.5 -19t94.5 59q14 17 18.5 42.5t-2 51.5t-23 48t-48.5 33.5t-74 6.5zM349 76q-21 -2 -35.5 8t-14.5 28q0 17 13.5 32t33.5 18q6 0 11.5 -0.5
t10 -1.5t9 -3t8 -4.5t6 -6t4 -7t2.5 -7.5t1 -9q0 -17 -14.5 -31t-34.5 -16zM436 150q-7 -5 -14.5 -4.5t-11.5 6.5t-2.5 15t8.5 14q5 4 10.5 4.5t10 -1.5t6.5 -6q2 -2 2.5 -5t0 -6t-2 -6t-3.5 -6t-4 -5zM800 365q8 0 15 5.5t8 14.5q0 1 1 1v1q13 117 -81 134q-28 5 -52 1
q-10 0 -17 -7.5t-7 -17.5q0 -6 3 -11.5t8.5 -9t12.5 -3.5q81 18 86 -52q1 -17 -2 -32q0 -7 3.5 -12.5t9 -8.5t12.5 -3zM782 648q-52 12 -121 -2h-2l-1 -1l-1 -1q-7 -2 -13 -7t-9.5 -12t-3.5 -15q0 -14 10.5 -24.5t24.5 -10.5l32 8q6 0 18.5 1.5t33.5 -4t42 -13.5t43.5 -26.5
t37.5 -44.5q27 -61 11 -117q-1 0 -1.5 -1.5t-1.5 -5t-2 -7.5t-1.5 -9.5t-0.5 -9.5q0 -15 10 -23.5t25 -8.5t23 5.5t11 24.5q18 57 13.5 103t-20 80t-43 59t-56 40t-58.5 22z" />
    <glyph glyph-name="uniE61B" unicode="&#xe61b;" 
d="M670 445q14 0 31 -2q-21 95 -112 158.5t-207 63.5q-65 0 -123 -21t-100.5 -57t-68 -86t-25.5 -105q0 -64 33 -117.5t94 -95.5l-32 -96l111 56q80 -16 111 -16q13 0 29 1q-5 17 -7.5 33.5t-2.5 32.5q0 104 78.5 177.5t190.5 73.5zM500 530q18 0 29 -10.5t11 -28.5t-11 -29
t-29 -11q-12 0 -22.5 5t-17.5 14.5t-7 20.5q0 17 14 28t33 11zM279 451q-12 0 -23 5t-18 14.5t-7 20.5q0 17 14.5 28t33.5 11q18 0 28.5 -10.5t10.5 -28.5q0 -12 -5 -21t-13.5 -14t-20.5 -5zM959 198q0 94 -80.5 162t-188.5 68q-74 0 -136 -31t-97.5 -83.5t-35.5 -115.5
q0 -95 78.5 -162t190.5 -67q32 0 95 16l87 -48l-24 79q111 83 111 182zM603 238q-8 0 -15.5 4.5t-12 12t-4.5 14.5q0 12 10 22t22 10q17 0 28 -9.5t11 -22t-11 -22t-28 -9.5zM777 238q-12 0 -22 10t-10 21q0 6 3 12t7.5 10.5t10 7t11.5 2.5q11 0 20.5 -4.5t14 -12t4.5 -15.5
t-4.5 -15t-14 -11.5t-20.5 -4.5z" />
    <glyph glyph-name="uniE61C" unicode="&#xe61c;" 
d="M512 480l448 -463v103l-448 463l-448 -463v-103z" />
    <glyph glyph-name="uniE61D" unicode="&#xe61d;" 
d="M463 4q1 -2 1 -4.5t-0.5 -5t-1.5 -4.5t-2 -4.5t-2.5 -4.5t-2.5 -3l-1 -1q-2 -2 -4.5 -4t-5.5 -3l-6 -2q-3 -1 -7 -1q-14 0 -24 12l-319 349q-10 9 -9 24q-1 14 9 24l321 350q9 10 22.5 10t23.5 -10t8 -26v-189q98 0 187.5 -38t154 -102t102.5 -153t38 -187
q0 -99 -40 -191q-19 99 -83 179.5t-159 126.5t-199 46z" />
    <glyph glyph-name="uniE61E" unicode="&#xe61e;" 
d="M402 570q13 -29 19 -42t17.5 -32t24.5 -32q21 -23 58.5 -25.5t55.5 20.5q10 16 3.5 42.5t-20 51.5t-26.5 38l-7 7l-7 7l-6 7q-5 4 -8 6t-8 6t-9.5 6t-10.5 4.5t-12 4t-13.5 3.5t-16.5 3q-26 3 -58 -8t-52 -23l-19 -13q3 1 8.5 1.5t19.5 0t25.5 -3t24 -10t17.5 -19.5z
M614 542l3 -6l7 -1q72 -7 135 -43q50 -29 79 -72q35 -53 35 -125v-5v-5v-13q0 -6 -1.5 -13t-5.5 -15l-4 -7l5 -6q9 -12 16.5 -22.5t14.5 -20.5l11 -15l9 17q14 25 18 48t4 56q0 51 -16 104.5t-57 98.5q-46 52 -112 79q-34 14 -73.5 22t-86.5 9l-26 1l16 -21q16 -20 29 -45z
M769 113l-8 8l-8 -7q-63 -51 -136 -82.5t-130 -31.5q-7 0 -12 1t-9 3t-6 5q-11 15 9 88q9 33 13 51t2.5 43t-12.5 40q-22 30 -79 30q-37 0 -67.5 -9.5t-53.5 -28.5t-35 -32t-29 -37q-26 -34 -37 -38h-3h-4q-15 0 -22 10q-10 14 -7.5 41.5t7.5 50t10 33.5q3 7 7 16t17 31.5
t29 43.5q71 97 172 145l12 6l-6 11l-7 13q-3 7 -6 12.5t-6 12.5l-5 11l-11 -5q-117 -57 -200 -164q-14 -19 -26.5 -38.5t-21.5 -36t-15.5 -32t-10 -28t-4.5 -22.5q-9 -27 -4.5 -76.5t25.5 -77.5q23 -30 61 -30q8 0 16 1q21 3 41 16.5t30.5 25t28.5 34.5q16 19 25.5 29
t25.5 24t34 20t40 6q16 0 21 -7q3 -4 3.5 -12.5t-2.5 -22t-5.5 -22.5t-7.5 -26q-10 -35 -14 -54t-3.5 -46.5t13 -44.5t34.5 -25t55 -8q72 0 160.5 35.5t156.5 92.5l11 9l-10 9zM669 416q-1 2 -3 4.5t-9 7.5t-14 6.5t-18.5 -2.5t-22.5 -16q-10 -10 -13.5 -21t-2 -19t5 -15
t7.5 -10l3 -4l177 -183q170 -171 180 -160q17 17 -290 412v0z" />
    <glyph glyph-name="uniE61F" unicode="&#xe61f;" 
d="M960 395l-139 119l-166 -159l-80 70l163 175l-122 136h344v-341zM64 395l139 119l166 -159l80 71l-163 174l122 136h-344v-341zM619 -159l119 138l-159 166l70 80l175 -162l136 121v-343h-341zM405 -159l-119 138l159 166l-70 80l-175 -162l-136 121v-343h341zM447 224z
" />
    <glyph glyph-name="uniE620" unicode="&#xe620;" 
d="M575 351v344l136 -122l175 163l70 -80l-159 -167l119 -138h-341zM446 351v344l-136 -122l-175 163l-70 -80l159 -167l-119 -138h341zM575 222h344l-122 -136l163 -175l-80 -70l-167 159l-138 -119v341zM446 222h-344l122 -136l-163 -175l80 -70l166 159l139 -119v341z
M446 222z" />
    <glyph glyph-name="uniE621" unicode="&#xe621;" 
d="M560 192q-104 0 -199 -46t-159 -126.5t-83 -179.5q-40 92 -40 191q0 98 38 187t102.5 153t154 102t187.5 38v189q-2 16 8 26q7 6 15 8.5t16.5 0t14.5 -8.5l321 -350q10 -10 9 -24q1 -15 -9 -24l-319 -349q-10 -12 -24 -12q-7 0 -13 3t-10 7l-1 1q-10 10 -8 26l-1 44v92
v52z" />
    <glyph glyph-name="uniE622" unicode="&#xe622;" 
d="M949 413.5q-8 24.5 -33 28.5l-257 37l-115 233q-5 10 -15.5 16.5t-21.5 6.5q-26 0 -38 -23l-115 -233l-257 -37q-25 -4 -33 -29q-4 -11 -1 -22.5t12 -19.5l186 -181l-44 -256q-1 -5 -1 -9.5t1.5 -9t3.5 -8.5t5 -7.5t7 -6.5q21 -15 44 -3l230 121l229 -121q10 -5 20 -5
q13 0 24 8q21 15 17 41l-44 256l186 181q18 18 10 42.5z" />
    <glyph glyph-name="uniE623" unicode="&#xe623;" 
d="M512 736l344 -344h-688zM374 392h276v-413h-276v413zM168 -91h688v-68h-688v68z" />
  </font>
</defs>
</svg>
